<svg width="18" height="18" viewBox="0 0 18 18" fill="none" xmlns="http://www.w3.org/2000/svg">
<path d="M1.20549 17.975C0.855488 18.0583 0.551321 17.9708 0.292988 17.7125C0.0346545 17.4542 -0.0528455 17.15 0.0304878 16.8L1.03049 12.025L5.98049 16.975L1.20549 17.975ZM5.98049 16.975L1.03049 12.025L12.4805 0.575C12.8638 0.191667 13.3388 0 13.9055 0C14.4722 0 14.9472 0.191667 15.3305 0.575L17.4305 2.675C17.8138 3.05833 18.0055 3.53333 18.0055 4.1C18.0055 4.66667 17.8138 5.14167 17.4305 5.525L5.98049 16.975ZM13.9055 1.975L3.55549 12.325L5.68049 14.45L16.0305 4.1L13.9055 1.975Z" fill="#0A0A0A"/>
</svg>
