<svg width="16" height="16" viewBox="0 0 16 16" fill="none" xmlns="http://www.w3.org/2000/svg">
<path d="M1.07122 15.9729C0.760202 16.047 0.489914 15.9692 0.260354 15.7396C0.0307946 15.5101 -0.0469595 15.2398 0.027092 14.9288L0.91571 10.6856L5.31437 15.0843L1.07122 15.9729ZM5.31437 15.0843L0.91571 10.6856L11.0904 0.510955C11.431 0.170318 11.8531 0 12.3567 0C12.8602 0 13.2823 0.170318 13.6229 0.510955L15.489 2.37705C15.8297 2.71769 16 3.13978 16 3.64333C16 4.14688 15.8297 4.56898 15.489 4.90961L5.31437 15.0843ZM12.3567 1.75502L3.15947 10.9522L5.04778 12.8405L14.245 3.64333L12.3567 1.75502Z" fill="#008751"/>
</svg>
