<svg width="143" height="26" viewBox="0 0 143 26" fill="none" xmlns="http://www.w3.org/2000/svg">
<path d="M8.64072 0.288035C10.0807 0.288035 11.3527 0.636036 12.4567 1.33204C13.5847 2.00404 14.4607 2.95204 15.0847 4.17604C15.7087 5.40004 16.0207 6.80404 16.0207 8.38804C16.0207 9.92404 15.7207 11.28 15.1207 12.456C14.5447 13.632 13.7287 14.544 12.6727 15.192C11.6167 15.816 10.3927 16.128 9.00072 16.128H6.98472C6.84072 16.128 6.76872 16.2 6.76872 16.344V24.948C6.76872 25.116 6.72072 25.248 6.62472 25.344C6.52872 25.44 6.39672 25.488 6.22872 25.488H0.540719C0.372719 25.488 0.240719 25.44 0.144719 25.344C0.0487188 25.248 0.000718758 25.116 0.000718758 24.948V0.828035C0.000718758 0.660036 0.0487188 0.528036 0.144719 0.432036C0.240719 0.336035 0.372719 0.288035 0.540719 0.288035H8.64072ZM7.45272 10.908C8.00472 10.908 8.43672 10.716 8.74872 10.332C9.08472 9.92404 9.25272 9.32404 9.25272 8.53204C9.25272 7.74004 9.08472 7.14004 8.74872 6.73204C8.43672 6.30004 8.00472 6.08404 7.45272 6.08404H6.98472C6.84072 6.08404 6.76872 6.15604 6.76872 6.30004V10.692C6.76872 10.836 6.84072 10.908 6.98472 10.908H7.45272ZM24.8207 25.776C22.3967 25.776 20.4527 25.08 18.9887 23.688C17.5487 22.296 16.8287 20.424 16.8287 18.072V7.70404C16.8287 5.35204 17.5487 3.48004 18.9887 2.08804C20.4527 0.696037 22.3967 3.69549e-05 24.8207 3.69549e-05C27.2448 3.69549e-05 29.1768 0.696037 30.6168 2.08804C32.0808 3.48004 32.8127 5.35204 32.8127 7.70404V18.072C32.8127 20.424 32.0808 22.296 30.6168 23.688C29.1768 25.08 27.2448 25.776 24.8207 25.776ZM24.8207 19.98C25.2047 19.98 25.5048 19.836 25.7208 19.548C25.9368 19.26 26.0448 18.864 26.0448 18.36V7.41604C26.0448 6.91204 25.9368 6.51604 25.7208 6.22804C25.5048 5.94004 25.2047 5.79604 24.8207 5.79604C24.4367 5.79604 24.1367 5.94004 23.9207 6.22804C23.7047 6.51604 23.5967 6.91204 23.5967 7.41604V18.36C23.5967 18.864 23.7047 19.26 23.9207 19.548C24.1367 19.836 24.4367 19.98 24.8207 19.98ZM39.2342 25.488C38.8982 25.488 38.6942 25.332 38.6222 25.02L33.7262 0.864037V0.720036C33.7262 0.432036 33.8942 0.288035 34.2302 0.288035H40.0982C40.4582 0.288035 40.6502 0.456035 40.6742 0.792035L41.8982 11.772C41.8982 11.82 41.9342 11.856 42.0062 11.88C42.0782 11.88 42.1142 11.844 42.1142 11.772L43.4462 0.792035C43.4702 0.456035 43.6622 0.288035 44.0222 0.288035H48.4142C48.7742 0.288035 48.9662 0.456035 48.9902 0.792035L50.5023 11.808C50.5023 11.856 50.5382 11.892 50.6102 11.916C50.7062 11.916 50.7543 11.88 50.7543 11.808L51.7982 0.792035C51.8222 0.456035 52.0022 0.288035 52.3382 0.288035H58.0623C58.4702 0.288035 58.6382 0.480036 58.5663 0.864037L53.9582 25.02C53.8862 25.332 53.6822 25.488 53.3462 25.488H48.3782C48.0182 25.488 47.8262 25.32 47.8022 24.984L46.2902 13.428C46.2902 13.356 46.2422 13.32 46.1462 13.32C46.0742 13.32 46.0382 13.356 46.0382 13.428L44.8142 24.984C44.7902 25.32 44.5982 25.488 44.2382 25.488H39.2342ZM74.0724 5.54404C74.0724 5.71204 74.0244 5.84404 73.9284 5.94004C73.8324 6.03604 73.7004 6.08404 73.5324 6.08404H66.6564C66.5124 6.08404 66.4404 6.15604 66.4404 6.30004V9.75604C66.4404 9.90004 66.5124 9.97204 66.6564 9.97204H70.2204C70.3884 9.97204 70.5204 10.02 70.6164 10.116C70.7124 10.212 70.7604 10.344 70.7604 10.512V15.228C70.7604 15.396 70.7124 15.528 70.6164 15.624C70.5204 15.72 70.3884 15.768 70.2204 15.768H66.6564C66.5124 15.768 66.4404 15.84 66.4404 15.984V19.476C66.4404 19.62 66.5124 19.692 66.6564 19.692H73.5324C73.7004 19.692 73.8324 19.74 73.9284 19.836C74.0244 19.932 74.0724 20.064 74.0724 20.232V24.948C74.0724 25.116 74.0244 25.248 73.9284 25.344C73.8324 25.44 73.7004 25.488 73.5324 25.488H60.2124C60.0444 25.488 59.9124 25.44 59.8164 25.344C59.7204 25.248 59.6724 25.116 59.6724 24.948V0.828035C59.6724 0.660036 59.7204 0.528036 59.8164 0.432036C59.9124 0.336035 60.0444 0.288035 60.2124 0.288035H73.5324C73.7004 0.288035 73.8324 0.336035 73.9284 0.432036C74.0244 0.528036 74.0724 0.660036 74.0724 0.828035V5.54404ZM85.1365 25.488C84.8245 25.488 84.6325 25.332 84.5605 25.02L82.3645 15.984C82.3165 15.864 82.2685 15.804 82.2205 15.804C82.1245 15.804 82.0765 15.876 82.0765 16.02V24.948C82.0765 25.116 82.0285 25.248 81.9325 25.344C81.8365 25.44 81.7045 25.488 81.5365 25.488H75.8485C75.6805 25.488 75.5485 25.44 75.4525 25.344C75.3565 25.248 75.3085 25.116 75.3085 24.948V0.828035C75.3085 0.660036 75.3565 0.528036 75.4525 0.432036C75.5485 0.336035 75.6805 0.288035 75.8485 0.288035H83.9485C85.3885 0.288035 86.6605 0.636036 87.7645 1.33204C88.8925 2.00404 89.7685 2.95204 90.3925 4.17604C91.0165 5.37604 91.3285 6.75604 91.3285 8.31604C91.3285 9.63604 91.1005 10.824 90.6445 11.88C90.1885 12.912 89.5285 13.752 88.6645 14.4C88.5685 14.472 88.5325 14.568 88.5565 14.688L91.4725 24.876C91.4965 24.924 91.5085 24.984 91.5085 25.056C91.5085 25.344 91.3405 25.488 91.0045 25.488H85.1365ZM82.2925 6.08404C82.1485 6.08404 82.0765 6.15604 82.0765 6.30004V10.44C82.0765 10.584 82.1485 10.656 82.2925 10.656H82.7605C83.2885 10.656 83.7205 10.464 84.0565 10.08C84.3925 9.67204 84.5605 9.10804 84.5605 8.38804C84.5605 7.64404 84.3925 7.08004 84.0565 6.69604C83.7445 6.28804 83.3125 6.08404 82.7605 6.08404H82.2925Z" fill="#111111"/>
<path d="M101.453 0.828035C101.453 0.660036 101.501 0.528036 101.597 0.432036C101.693 0.336035 101.825 0.288035 101.993 0.288035H107.681C107.849 0.288035 107.981 0.336035 108.077 0.432036C108.173 0.528036 108.221 0.660036 108.221 0.828035V24.948C108.221 25.116 108.173 25.248 108.077 25.344C107.981 25.44 107.849 25.488 107.681 25.488H101.993C101.825 25.488 101.693 25.44 101.597 25.344C101.501 25.248 101.453 25.116 101.453 24.948V15.984C101.453 15.84 101.381 15.768 101.237 15.768H99.5809C99.4369 15.768 99.3649 15.84 99.3649 15.984V24.948C99.3649 25.116 99.3169 25.248 99.2209 25.344C99.1249 25.44 98.9929 25.488 98.8249 25.488H93.1369C92.9689 25.488 92.8369 25.44 92.7409 25.344C92.6449 25.248 92.5969 25.116 92.5969 24.948V0.828035C92.5969 0.660036 92.6449 0.528036 92.7409 0.432036C92.8369 0.336035 92.9689 0.288035 93.1369 0.288035H98.8249C98.9929 0.288035 99.1249 0.336035 99.2209 0.432036C99.3169 0.528036 99.3649 0.660036 99.3649 0.828035V9.75604C99.3649 9.90004 99.4369 9.97204 99.5809 9.97204H101.237C101.381 9.97204 101.453 9.90004 101.453 9.75604V0.828035ZM117.521 25.776C115.097 25.776 113.153 25.08 111.689 23.688C110.249 22.296 109.529 20.424 109.529 18.072V7.70404C109.529 5.35204 110.249 3.48004 111.689 2.08804C113.153 0.696037 115.097 3.69549e-05 117.521 3.69549e-05C119.945 3.69549e-05 121.877 0.696037 123.317 2.08804C124.781 3.48004 125.513 5.35204 125.513 7.70404V18.072C125.513 20.424 124.781 22.296 123.317 23.688C121.877 25.08 119.945 25.776 117.521 25.776ZM117.521 19.98C117.905 19.98 118.205 19.836 118.421 19.548C118.637 19.26 118.745 18.864 118.745 18.36V7.41604C118.745 6.91204 118.637 6.51604 118.421 6.22804C118.205 5.94004 117.905 5.79604 117.521 5.79604C117.137 5.79604 116.837 5.94004 116.621 6.22804C116.405 6.51604 116.297 6.91204 116.297 7.41604V18.36C116.297 18.864 116.405 19.26 116.621 19.548C116.837 19.836 117.137 19.98 117.521 19.98ZM135.39 0.288035C136.83 0.288035 138.102 0.636036 139.206 1.33204C140.334 2.00404 141.21 2.95204 141.834 4.17604C142.458 5.40004 142.77 6.80404 142.77 8.38804C142.77 9.92404 142.47 11.28 141.87 12.456C141.294 13.632 140.478 14.544 139.422 15.192C138.366 15.816 137.142 16.128 135.75 16.128H133.734C133.59 16.128 133.518 16.2 133.518 16.344V24.948C133.518 25.116 133.47 25.248 133.374 25.344C133.278 25.44 133.146 25.488 132.978 25.488H127.29C127.122 25.488 126.99 25.44 126.894 25.344C126.798 25.248 126.75 25.116 126.75 24.948V0.828035C126.75 0.660036 126.798 0.528036 126.894 0.432036C126.99 0.336035 127.122 0.288035 127.29 0.288035H135.39ZM134.202 10.908C134.754 10.908 135.186 10.716 135.498 10.332C135.834 9.92404 136.002 9.32404 136.002 8.53204C136.002 7.74004 135.834 7.14004 135.498 6.73204C135.186 6.30004 134.754 6.08404 134.202 6.08404H133.734C133.59 6.08404 133.518 6.15604 133.518 6.30004V10.692C133.518 10.836 133.59 10.908 133.734 10.908H134.202Z" fill="#008751"/>
</svg>
