<svg width="143" height="26" viewBox="0 0 143 26" fill="none" xmlns="http://www.w3.org/2000/svg">
<path d="M8.63974 0.288005C10.0797 0.288005 11.3517 0.636005 12.4557 1.33201C13.5837 2.00401 14.4597 2.95201 15.0837 4.17601C15.7077 5.40001 16.0197 6.80401 16.0197 8.38801C16.0197 9.92401 15.7197 11.28 15.1197 12.456C14.5437 13.632 13.7277 14.544 12.6717 15.192C11.6157 15.816 10.3917 16.128 8.99974 16.128H6.98374C6.83974 16.128 6.76774 16.2 6.76774 16.344V24.948C6.76774 25.116 6.71974 25.248 6.62374 25.344C6.52774 25.44 6.39574 25.488 6.22774 25.488H0.539742C0.371742 25.488 0.239742 25.44 0.143742 25.344C0.0477422 25.248 -0.000257805 25.116 -0.000257805 24.948V0.828004C-0.000257805 0.660005 0.0477422 0.528005 0.143742 0.432005C0.239742 0.336005 0.371742 0.288005 0.539742 0.288005H8.63974ZM7.45174 10.908C8.00374 10.908 8.43574 10.716 8.74774 10.332C9.08374 9.92401 9.25174 9.32401 9.25174 8.53201C9.25174 7.74001 9.08374 7.14001 8.74774 6.73201C8.43574 6.30001 8.00374 6.08401 7.45174 6.08401H6.98374C6.83974 6.08401 6.76774 6.15601 6.76774 6.3V10.692C6.76774 10.836 6.83974 10.908 6.98374 10.908H7.45174ZM24.8198 25.776C22.3958 25.776 20.4518 25.08 18.9878 23.688C17.5478 22.296 16.8278 20.424 16.8278 18.072V7.70401C16.8278 5.35201 17.5478 3.48001 18.9878 2.08801C20.4518 0.696006 22.3958 6.4373e-06 24.8198 6.4373e-06C27.2438 6.4373e-06 29.1758 0.696006 30.6158 2.08801C32.0798 3.48001 32.8118 5.35201 32.8118 7.70401V18.072C32.8118 20.424 32.0798 22.296 30.6158 23.688C29.1758 25.08 27.2438 25.776 24.8198 25.776ZM24.8198 19.98C25.2038 19.98 25.5038 19.836 25.7198 19.548C25.9358 19.26 26.0438 18.864 26.0438 18.36V7.41601C26.0438 6.91201 25.9358 6.51601 25.7198 6.22801C25.5038 5.94001 25.2038 5.796 24.8198 5.796C24.4358 5.796 24.1358 5.94001 23.9198 6.22801C23.7038 6.51601 23.5958 6.91201 23.5958 7.41601V18.36C23.5958 18.864 23.7038 19.26 23.9198 19.548C24.1358 19.836 24.4358 19.98 24.8198 19.98ZM39.2333 25.488C38.8973 25.488 38.6933 25.332 38.6213 25.02L33.7253 0.864006V0.720006C33.7253 0.432005 33.8933 0.288005 34.2293 0.288005H40.0973C40.4573 0.288005 40.6493 0.456005 40.6733 0.792005L41.8973 11.772C41.8973 11.82 41.9333 11.856 42.0053 11.88C42.0773 11.88 42.1133 11.844 42.1133 11.772L43.4453 0.792005C43.4693 0.456005 43.6613 0.288005 44.0213 0.288005H48.4133C48.7733 0.288005 48.9653 0.456005 48.9893 0.792005L50.5013 11.808C50.5013 11.856 50.5373 11.892 50.6093 11.916C50.7053 11.916 50.7533 11.88 50.7533 11.808L51.7973 0.792005C51.8213 0.456005 52.0013 0.288005 52.3373 0.288005H58.0613C58.4693 0.288005 58.6373 0.480005 58.5653 0.864006L53.9573 25.02C53.8853 25.332 53.6813 25.488 53.3453 25.488H48.3773C48.0173 25.488 47.8253 25.32 47.8013 24.984L46.2893 13.428C46.2893 13.356 46.2413 13.32 46.1453 13.32C46.0733 13.32 46.0373 13.356 46.0373 13.428L44.8133 24.984C44.7893 25.32 44.5973 25.488 44.2373 25.488H39.2333ZM74.0714 5.54401C74.0714 5.71201 74.0234 5.844 73.9274 5.94001C73.8314 6.03601 73.6994 6.08401 73.5314 6.08401H66.6554C66.5114 6.08401 66.4394 6.15601 66.4394 6.3V9.75601C66.4394 9.90001 66.5114 9.97201 66.6554 9.97201H70.2194C70.3874 9.97201 70.5194 10.02 70.6154 10.116C70.7114 10.212 70.7594 10.344 70.7594 10.512V15.228C70.7594 15.396 70.7114 15.528 70.6154 15.624C70.5194 15.72 70.3874 15.768 70.2194 15.768H66.6554C66.5114 15.768 66.4394 15.84 66.4394 15.984V19.476C66.4394 19.62 66.5114 19.692 66.6554 19.692H73.5314C73.6994 19.692 73.8314 19.74 73.9274 19.836C74.0234 19.932 74.0714 20.064 74.0714 20.232V24.948C74.0714 25.116 74.0234 25.248 73.9274 25.344C73.8314 25.44 73.6994 25.488 73.5314 25.488H60.2114C60.0434 25.488 59.9114 25.44 59.8154 25.344C59.7194 25.248 59.6714 25.116 59.6714 24.948V0.828004C59.6714 0.660005 59.7194 0.528005 59.8154 0.432005C59.9114 0.336005 60.0434 0.288005 60.2114 0.288005H73.5314C73.6994 0.288005 73.8314 0.336005 73.9274 0.432005C74.0234 0.528005 74.0714 0.660005 74.0714 0.828004V5.54401ZM85.1355 25.488C84.8235 25.488 84.6315 25.332 84.5595 25.02L82.3635 15.984C82.3155 15.864 82.2675 15.804 82.2195 15.804C82.1235 15.804 82.0755 15.876 82.0755 16.02V24.948C82.0755 25.116 82.0275 25.248 81.9315 25.344C81.8355 25.44 81.7035 25.488 81.5355 25.488H75.8475C75.6795 25.488 75.5475 25.44 75.4515 25.344C75.3555 25.248 75.3075 25.116 75.3075 24.948V0.828004C75.3075 0.660005 75.3555 0.528005 75.4515 0.432005C75.5475 0.336005 75.6795 0.288005 75.8475 0.288005H83.9475C85.3875 0.288005 86.6595 0.636005 87.7635 1.33201C88.8915 2.00401 89.7675 2.95201 90.3915 4.17601C91.0155 5.37601 91.3275 6.756 91.3275 8.31601C91.3275 9.63601 91.0995 10.824 90.6435 11.88C90.1875 12.912 89.5275 13.752 88.6635 14.4C88.5675 14.472 88.5315 14.568 88.5555 14.688L91.4715 24.876C91.4955 24.924 91.5075 24.984 91.5075 25.056C91.5075 25.344 91.3395 25.488 91.0035 25.488H85.1355ZM82.2915 6.08401C82.1475 6.08401 82.0755 6.15601 82.0755 6.3V10.44C82.0755 10.584 82.1475 10.656 82.2915 10.656H82.7595C83.2875 10.656 83.7195 10.464 84.0555 10.08C84.3915 9.67201 84.5595 9.10801 84.5595 8.38801C84.5595 7.64401 84.3915 7.08001 84.0555 6.69601C83.7435 6.28801 83.3115 6.08401 82.7595 6.08401H82.2915Z" fill="white"/>
<path d="M101.452 0.828004C101.452 0.660005 101.5 0.528005 101.596 0.432005C101.692 0.336005 101.824 0.288005 101.992 0.288005H107.68C107.848 0.288005 107.98 0.336005 108.076 0.432005C108.172 0.528005 108.22 0.660005 108.22 0.828004V24.948C108.22 25.116 108.172 25.248 108.076 25.344C107.98 25.44 107.848 25.488 107.68 25.488H101.992C101.824 25.488 101.692 25.44 101.596 25.344C101.5 25.248 101.452 25.116 101.452 24.948V15.984C101.452 15.84 101.38 15.768 101.236 15.768H99.58C99.436 15.768 99.364 15.84 99.364 15.984V24.948C99.364 25.116 99.316 25.248 99.22 25.344C99.124 25.44 98.992 25.488 98.824 25.488H93.136C92.968 25.488 92.836 25.44 92.74 25.344C92.644 25.248 92.596 25.116 92.596 24.948V0.828004C92.596 0.660005 92.644 0.528005 92.74 0.432005C92.836 0.336005 92.968 0.288005 93.136 0.288005H98.824C98.992 0.288005 99.124 0.336005 99.22 0.432005C99.316 0.528005 99.364 0.660005 99.364 0.828004V9.75601C99.364 9.90001 99.436 9.97201 99.58 9.97201H101.236C101.38 9.97201 101.452 9.90001 101.452 9.75601V0.828004ZM117.52 25.776C115.096 25.776 113.152 25.08 111.688 23.688C110.248 22.296 109.528 20.424 109.528 18.072V7.70401C109.528 5.35201 110.248 3.48001 111.688 2.08801C113.152 0.696006 115.096 6.4373e-06 117.52 6.4373e-06C119.944 6.4373e-06 121.876 0.696006 123.316 2.08801C124.78 3.48001 125.512 5.35201 125.512 7.70401V18.072C125.512 20.424 124.78 22.296 123.316 23.688C121.876 25.08 119.944 25.776 117.52 25.776ZM117.52 19.98C117.904 19.98 118.204 19.836 118.42 19.548C118.636 19.26 118.744 18.864 118.744 18.36V7.41601C118.744 6.91201 118.636 6.51601 118.42 6.22801C118.204 5.94001 117.904 5.796 117.52 5.796C117.136 5.796 116.836 5.94001 116.62 6.22801C116.404 6.51601 116.296 6.91201 116.296 7.41601V18.36C116.296 18.864 116.404 19.26 116.62 19.548C116.836 19.836 117.136 19.98 117.52 19.98ZM135.389 0.288005C136.829 0.288005 138.101 0.636005 139.205 1.33201C140.333 2.00401 141.209 2.95201 141.833 4.17601C142.457 5.40001 142.769 6.80401 142.769 8.38801C142.769 9.92401 142.469 11.28 141.869 12.456C141.293 13.632 140.477 14.544 139.421 15.192C138.365 15.816 137.141 16.128 135.749 16.128H133.733C133.589 16.128 133.517 16.2 133.517 16.344V24.948C133.517 25.116 133.469 25.248 133.373 25.344C133.277 25.44 133.145 25.488 132.977 25.488H127.289C127.121 25.488 126.989 25.44 126.893 25.344C126.797 25.248 126.749 25.116 126.749 24.948V0.828004C126.749 0.660005 126.797 0.528005 126.893 0.432005C126.989 0.336005 127.121 0.288005 127.289 0.288005H135.389ZM134.201 10.908C134.753 10.908 135.185 10.716 135.497 10.332C135.833 9.92401 136.001 9.32401 136.001 8.53201C136.001 7.74001 135.833 7.14001 135.497 6.73201C135.185 6.30001 134.753 6.08401 134.201 6.08401H133.733C133.589 6.08401 133.517 6.15601 133.517 6.3V10.692C133.517 10.836 133.589 10.908 133.733 10.908H134.201Z" fill="#008751"/>
</svg>
