<svg width="57" height="57" viewBox="0 0 57 57" fill="none" xmlns="http://www.w3.org/2000/svg">
<path d="M39.3286 0.529996C39.9157 -0.552785 41.5599 0.176775 41.151 1.33861L32.5521 25.7715C32.389 26.235 32.5868 26.7484 33.0188 26.9826L55.7891 39.3283C56.8719 39.9154 56.1424 41.5596 54.9805 41.1507L30.5476 32.5518C30.0841 32.3886 29.5708 32.5864 29.3366 33.0184L16.9908 55.7888C16.4038 56.8716 14.7596 56.142 15.1684 54.9802L23.7674 30.5473C23.9305 30.0838 23.7327 29.5704 23.3007 29.3362L0.53035 16.9905C-0.552431 16.4034 0.177129 14.7592 1.33897 15.1681L25.7718 23.767C26.2354 23.9301 26.7487 23.7323 26.9829 23.3004L39.3286 0.529996Z" fill="white"/>
</svg>
